<svg width="118" height="54" viewBox="0 0 118 54" fill="none" xmlns="http://www.w3.org/2000/svg"><path d="M12.75.075v12.912h6.288V.075h12.326v33.488h-12.33V19.488h-6.288v14.075H.199V.075h12.55ZM42.478.075v19.228c0 4.947 1.118 5.764 4.018 5.764 3.22 0 4.417-.718 4.417-5.764V.075H60.94v18.783c0 11.584-4.746 14.742-14.343 14.742-9.27 0-14.24-3.158-14.24-14.847V.063l10.121.012ZM91.897 33.55H77.892c-5.135 0-8.017-1.178-11.397-4.109-3.32-2.933-4.795-7.305-4.795-12.227C61.754 6.084 70.259 0 82.31 0c4.88 0 8.673 1.397 9.541 2.26l-3.663 7.137c-1.5-.852-2.665-1.196-7.015-1.201-6.272-.01-9.62 2.403-9.62 9.418 0 5.813 3.405 7.385 8.022 7.385 1.853 0 4.314-.103 4.056-.103l-.077-5.523h-5.043v-6.386h13.385V33.55ZM110.825 19.403h-7.829v5.794h14.101v8.366H93.305V.075h22.763v7.548h-13.072v5.414h7.829v6.366Z" fill="#B71F32"/><path d="M61.743 36.51v2.849h2.282v2.398h-2.282v3.812c0 1.262.315 1.842 1.256 1.842.317.012.633-.018.942-.087l.02 2.463a6.495 6.495 0 0 1-2.052.28c-1.027 0-1.886-.364-2.405-.902-.589-.62-.873-1.624-.873-3.102v-4.304h-1.363v-2.398h1.363v-1.977l3.112-.874ZM64.674 34.901h3.184v5.997h.042a3.453 3.453 0 0 1 1.258-1.094 3.563 3.563 0 0 1 1.654-.405c2.032 0 3.58 1.432 3.58 4.603v6.103H71.21V44.34c0-1.37-.46-2.311-1.654-2.311-.837 0-1.363.557-1.592 1.156-.079.224-.114.461-.105.699v6.21h-3.184V34.9ZM77.872 45.682c.105 1.371 1.398 2.012 2.891 2.012a8.255 8.255 0 0 0 2.828-.45l.418 2.207c-1.048.45-2.325.662-3.707.662-3.48 0-5.469-2.054-5.469-5.352 0-2.655 1.635-5.59 5.174-5.59 3.31 0 4.568 2.633 4.568 5.222a8.698 8.698 0 0 1-.105 1.308l-6.598-.02Zm3.749-2.227c0-.769-.335-2.12-1.78-2.12-1.364 0-1.907 1.262-1.99 2.12h3.77ZM93.81 47.305c0 .985.041 1.95.302 2.795h-2.87l-.322-1.319h-.064c-.67.832-1.715 1.282-2.931 1.282-2.073 0-3.31-1.544-3.31-3.214 0-2.716 2.388-4.003 6.012-4.003v-.13c0-.557-.295-1.346-1.864-1.346a5.875 5.875 0 0 0-2.828.77l-.587-2.078c.713-.406 2.116-.942 3.98-.942 3.413 0 4.482 2.056 4.482 4.519v3.666Zm-3.08-2.42c-1.673 0-2.97.406-2.97 1.648 0 .837.55 1.245 1.258 1.245a1.763 1.763 0 0 0 1.654-1.201c.044-.183.066-.37.063-.557l-.005-1.136ZM98.35 36.51v2.849h2.284v2.398h-2.285v3.812c0 1.262.313 1.842 1.256 1.842.317.012.634-.018.944-.087l.02 2.463a6.518 6.518 0 0 1-2.054.28c-1.027 0-1.886-.364-2.407-.902-.588-.62-.873-1.624-.873-3.102v-4.304h-1.362v-2.398h1.362v-1.977l3.114-.874Z" fill="#616264"/><path d="M103.495 45.682c.103 1.368 1.398 2.012 2.891 2.012a8.237 8.237 0 0 0 2.828-.45l.419 2.207c-1.048.45-2.327.662-3.708.662-3.478 0-5.467-2.054-5.467-5.355 0-2.655 1.634-5.59 5.173-5.59 3.31 0 4.566 2.636 4.566 5.225 0 .438-.035.876-.104 1.308l-6.598-.019Zm3.75-2.227c0-.772-.337-2.12-1.781-2.12-1.361 0-1.906 1.262-1.99 2.12h3.771ZM110.599 42.99c0-1.56-.022-2.578-.087-3.493h2.725l.126 1.974h.082c.524-1.564 1.762-2.214 2.767-2.214.224-.003.449.019.669.065v3.102a4.85 4.85 0 0 0-.874-.087c-1.173 0-1.968.63-2.18 1.668a3.96 3.96 0 0 0-.061.737v5.36h-3.189l.022-7.112ZM1.572 38.363C.613 38.363 0 37.605 0 36.658c0-.946.641-1.71 1.62-1.71.977 0 1.571.74 1.597 1.71.027.971-.621 1.705-1.615 1.705h-.03ZM.154 49.911V39.713H3.02V50.02l-2.866-.108ZM3.906 43.003c0-1.286-.039-2.364-.075-3.29h2.426l.113 1.414h.056c.395-.676 1.223-1.646 2.784-1.646a2.608 2.608 0 0 1 2.521 1.772h.037c.31-.501.72-.932 1.205-1.267a3.224 3.224 0 0 1 1.747-.505c1.773 0 3.104 1.398 3.104 4.47v6.135h-2.781v-5.65c0-1.498-.432-2.362-1.356-2.362-.676 0-1.128.504-1.336 1.12-.059.262-.09.531-.093.8v6.092H9.464v-5.838c0-1.29-.414-2.174-1.335-2.174-.735 0-1.167.634-1.336 1.14a2.435 2.435 0 0 0-.112.823v6.017H3.906v-7.051ZM18.669 42.973c0-1.35-.035-2.49-.074-3.457h2.484l.131 1.434h.038a3.455 3.455 0 0 1 3.068-1.668c2.01 0 3.816 1.962 3.816 5.249 0 3.755-2.124 5.525-4.176 5.525-1.107 0-1.972-.507-2.388-1.18h-.037V54H18.67V42.973Zm2.862 2.424c-.002.226.017.451.058.673.185.864.844 1.52 1.672 1.52 1.242 0 1.975-1.16 1.975-2.909 0-1.643-.658-2.887-1.939-2.887-.807 0-1.523.672-1.708 1.62-.04.188-.06.379-.058.57v1.413ZM28.605 43.107c0-1.518-.02-2.508-.074-3.394h2.446l.113 1.922h.075c.47-1.518 1.584-2.15 2.486-2.15.202-.003.403.018.6.062v3.015a4.206 4.206 0 0 0-.79-.084c-1.049 0-1.768.612-1.953 1.625a3.78 3.78 0 0 0-.06.716v5.27h-2.863l.02-6.982ZM39.029 50.054c-2.688 0-4.758-1.98-4.758-5.313 0-3.333 1.956-5.46 4.93-5.46 2.795 0 4.684 2.172 4.684 5.292 0 3.752-2.392 5.481-4.837 5.481h-.02Zm.057-2.295c1.127 0 1.824-1.247 1.824-3.1 0-1.522-.524-3.078-1.823-3.078-1.356 0-1.882 1.556-1.882 3.098 0 1.747.659 3.08 1.864 3.08h.017ZM46.461 39.248l1.24 5.002c.23.901.38 1.763.525 2.62h.057c.15-.884.3-1.696.507-2.62l1.184-5.002h3.011l-3.423 10.807h-2.854l-3.349-10.807h3.102Z" fill="#616264"/></svg>