<svg xmlns="http://www.w3.org/2000/svg" viewBox="0 0 367.35 367.35"><defs><style>.cls-1{fill:#f5b226;}.cls-2{fill:#01316b;}.cls-3,.cls-4{fill:#c60e2c;}.cls-3{fill-rule:evenodd;}</style></defs><g id="Layer_2" data-name="Layer 2"><g id="Layer_1-2" data-name="Layer 1"><circle class="cls-1" cx="183.68" cy="183.68" r="183.68"/><path class="cls-2" d="M183.68,359.77A176.09,176.09,0,0,1,59.16,59.16a176.09,176.09,0,1,1,249,249A174.9,174.9,0,0,1,183.68,359.77Zm0-346.61c-94,0-170.52,76.5-170.52,170.52s76.5,170.51,170.52,170.51S354.19,277.7,354.19,183.68,277.7,13.16,183.68,13.16Z"/><polygon class="cls-2" points="327.86 181.18 335.8 181.18 329.4 185.98 331.88 193.59 325.51 188.9 319.14 193.59 321.65 185.98 315.19 181.18 323.11 181.18 325.51 173.76 327.86 181.18"/><polygon class="cls-2" points="43.21 181.18 51.16 181.18 44.76 185.98 47.24 193.59 40.87 188.9 34.49 193.59 37 185.98 30.55 181.18 38.47 181.18 40.87 173.76 43.21 181.18"/><circle class="cls-2" cx="183.25" cy="183.69" r="115.08"/><path class="cls-3" d="M99,118.28a1.59,1.59,0,0,0-1.18,1.15,1.85,1.85,0,0,0,.65,1.67,1.45,1.45,0,0,0,1.5.27,1.6,1.6,0,0,0,1.17-1.16,1.35,1.35,0,0,0-.37-1.47A2,2,0,0,0,99,118.28Z"/><path class="cls-3" d="M111.81,125.66a1.68,1.68,0,0,0-1.66-.22,1.59,1.59,0,0,0-1,1.28,1.54,1.54,0,0,0,.64,1.49,1.75,1.75,0,0,0,1.71.23,1.57,1.57,0,0,0,.34-2.78Z"/><path class="cls-3" d="M123.7,131.49a2,2,0,0,0-1.82-.11h0a1.59,1.59,0,0,0-.9,1.37,1.86,1.86,0,0,0,1,1.51,1.44,1.44,0,0,0,1.52,0,1.57,1.57,0,0,0,.89-1.37A1.36,1.36,0,0,0,123.7,131.49Z"/><path class="cls-3" d="M136,136.08a1.68,1.68,0,0,0-1.68.13h0a1.65,1.65,0,0,0-.91,1.39,1.88,1.88,0,0,0,1.14,1.39,1.41,1.41,0,0,0,1.51-.17,1.54,1.54,0,0,0,.75-1.44A1.37,1.37,0,0,0,136,136.08Z"/><path class="cls-3" d="M148.64,139.53a1.68,1.68,0,0,0-1.66.26,1.54,1.54,0,0,0-.59,1.51,1.59,1.59,0,0,0,1.07,1.25,1.72,1.72,0,0,0,1.68-.26,1.54,1.54,0,0,0,.59-1.51A1.62,1.62,0,0,0,148.64,139.53Z"/><path class="cls-3" d="M161.54,141.87a1.71,1.71,0,0,0-1.63.4h0a1.52,1.52,0,0,0-.45,1.55,1.59,1.59,0,0,0,1.17,1.16,1.72,1.72,0,0,0,1.64-.4,1.55,1.55,0,0,0,.46-1.55A1.63,1.63,0,0,0,161.54,141.87Z"/><path class="cls-3" d="M174.57,143.19a1.69,1.69,0,0,0-1.59.53h0a1.51,1.51,0,0,0-.33,1.58,1.63,1.63,0,0,0,1.27,1.06,1.66,1.66,0,0,0,1.59-.52,1.52,1.52,0,0,0,.33-1.58A1.63,1.63,0,0,0,174.57,143.19Z"/><path class="cls-3" d="M187.64,143.58a1.65,1.65,0,0,0-1.55.63,1.52,1.52,0,0,0-.2,1.6,1.62,1.62,0,0,0,1.34,1,1.41,1.41,0,0,0,1.38-.63,1.56,1.56,0,0,0,.37-1.6A1.64,1.64,0,0,0,187.64,143.58Z"/><path class="cls-3" d="M200.71,143.06a1.64,1.64,0,0,0-1.49.74,1.49,1.49,0,0,0-.08,1.61,1.62,1.62,0,0,0,1.41.87,1.39,1.39,0,0,0,1.33-.72A1.53,1.53,0,0,0,202,144,1.45,1.45,0,0,0,200.71,143.06Z"/><path class="cls-3" d="M213.73,141.58a1.64,1.64,0,0,0-1.43.86,1.51,1.51,0,0,0,.06,1.61,1.65,1.65,0,0,0,1.48.76,1.4,1.4,0,0,0,1.26-.82,1.58,1.58,0,0,0,.13-1.64A1.68,1.68,0,0,0,213.73,141.58Z"/><path class="cls-3" d="M226.6,139.05a1.62,1.62,0,0,0-1.35,1h0a1.52,1.52,0,0,0,.2,1.6,1.66,1.66,0,0,0,1.54.64,1.7,1.7,0,0,0,1.38-1,1.53,1.53,0,0,0-.21-1.61A1.71,1.71,0,0,0,226.6,139.05Z"/><path class="cls-3" d="M239.2,135.41a1.63,1.63,0,0,0-1.25,1.08h0a1.53,1.53,0,0,0,.34,1.58,1.73,1.73,0,0,0,2.88-.6,1.54,1.54,0,0,0-.35-1.58A1.72,1.72,0,0,0,239.2,135.41Z"/><path class="cls-3" d="M251.53,130.55a1.91,1.91,0,0,0-1.27,1.26h0a1.53,1.53,0,0,0,.49,1.54,2,2,0,0,0,1.84.26,1.33,1.33,0,0,0,1-1.13,1.51,1.51,0,0,0-.5-1.54A1.47,1.47,0,0,0,251.53,130.55Z"/><path class="cls-3" d="M264.87,124.74a1.75,1.75,0,0,0-1.7-.16,1.58,1.58,0,0,0-1,1.3,1.56,1.56,0,0,0,.68,1.48,1.7,1.7,0,0,0,1.67.18,1.66,1.66,0,0,0,1-1.32A1.56,1.56,0,0,0,264.87,124.74Z"/><path class="cls-3" d="M275.3,118a1.5,1.5,0,0,0-1.58-.07,1.86,1.86,0,0,0-1,1.47,1.57,1.57,0,0,0,.82,1.41,1.68,1.68,0,0,0,1.68,0,1.65,1.65,0,0,0,.89-1.42A1.58,1.58,0,0,0,275.3,118Z"/><path class="cls-3" d="M111,110a1.6,1.6,0,0,0,1.14-1.18,1.51,1.51,0,0,0-.5-1.54,1.59,1.59,0,0,0-1.59-.35h0a1.59,1.59,0,0,0-1.14,1.18,1.51,1.51,0,0,0,.45,1.54A1.68,1.68,0,0,0,111,110Z"/><path class="cls-3" d="M122,114.66a1.32,1.32,0,0,0-.47-1.39,1.62,1.62,0,0,0-1.63-.18,1.58,1.58,0,0,0-1,1.28,1.48,1.48,0,0,0,.62,1.46,1.7,1.7,0,0,0,1.67.21A1.53,1.53,0,0,0,122,114.66Z"/><path class="cls-3" d="M132.05,118.21a2,2,0,0,0-1.83-.12h0a1.58,1.58,0,0,0-.87,1.39,1.83,1.83,0,0,0,.92,1.47,1.43,1.43,0,0,0,1.54,0,1.58,1.58,0,0,0,.86-1.39A1.28,1.28,0,0,0,132.05,118.21Z"/><path class="cls-3" d="M142.83,122a1.63,1.63,0,0,0-1.64.13h0a1.53,1.53,0,0,0-.72,1.45,1.55,1.55,0,0,0,.92,1.34,1.71,1.71,0,0,0,1.68-.13,1.56,1.56,0,0,0,.72-1.46A1.59,1.59,0,0,0,142.83,122Z"/><path class="cls-3" d="M154.19,125a1.63,1.63,0,0,0-1.63.27,1.54,1.54,0,0,0-.59,1.51A1.57,1.57,0,0,0,153,128a1.69,1.69,0,0,0,1.66-.27,1.54,1.54,0,0,0,.58-1.51A1.56,1.56,0,0,0,154.19,125Z"/><path class="cls-3" d="M165.82,126.91a1.69,1.69,0,0,0-1.62.4,1.52,1.52,0,0,0-.45,1.55,1.56,1.56,0,0,0,1.16,1.15,1.67,1.67,0,0,0,1.63-.4,1.52,1.52,0,0,0,.45-1.55A1.59,1.59,0,0,0,165.82,126.91Z"/><path class="cls-3" d="M177.62,128a1.68,1.68,0,0,0-1.59.53h0a1.51,1.51,0,0,0-.33,1.58,1.63,1.63,0,0,0,1.26,1.06,1.7,1.7,0,0,0,1.59-.52,1.52,1.52,0,0,0,.33-1.58A1.63,1.63,0,0,0,177.62,128Z"/><path class="cls-3" d="M189.5,128.17a1.69,1.69,0,0,0-1.55.62,1.54,1.54,0,0,0-.2,1.61,1.64,1.64,0,0,0,1.34,1,1.66,1.66,0,0,0,1.55-.63,1.53,1.53,0,0,0,.21-1.6A1.63,1.63,0,0,0,189.5,128.17Z"/><path class="cls-3" d="M201.35,127.57a1.64,1.64,0,0,0-1.49.73,1.51,1.51,0,0,0-.07,1.61,1.62,1.62,0,0,0,1.41.88,1.66,1.66,0,0,0,1.49-.74,1.51,1.51,0,0,0,.07-1.61A1.63,1.63,0,0,0,201.35,127.57Z"/><path class="cls-3" d="M214.61,128.46a1.53,1.53,0,0,0-.06-1.62,1.67,1.67,0,0,0-1.49-.75,1.62,1.62,0,0,0-1.41.84,1.51,1.51,0,0,0,.06,1.61,1.61,1.61,0,0,0,1.47.77A1.65,1.65,0,0,0,214.61,128.46Z"/><path class="cls-3" d="M226.31,125.9a1.54,1.54,0,0,0-.2-1.61,1.68,1.68,0,0,0-1.55-.63,1.61,1.61,0,0,0-1.32,1h0a1.52,1.52,0,0,0,.2,1.6,1.64,1.64,0,0,0,1.53.65A1.66,1.66,0,0,0,226.31,125.9Z"/><path class="cls-3" d="M235.74,120.24a1.93,1.93,0,0,0-1.4,1.14h0a1.55,1.55,0,0,0,.38,1.58,1.94,1.94,0,0,0,1.73.44,1.33,1.33,0,0,0,1.09-1,1.51,1.51,0,0,0-.39-1.57A1.43,1.43,0,0,0,235.74,120.24Z"/><path class="cls-3" d="M246.3,115.9a1.5,1.5,0,0,0-1.09,1.17h0a1.55,1.55,0,0,0,.53,1.53,2,2,0,0,0,1.76.29,1.34,1.34,0,0,0,1-1.14,1.53,1.53,0,0,0-.54-1.53A1.68,1.68,0,0,0,246.3,115.9Z"/><path class="cls-3" d="M258.18,110.62a1.69,1.69,0,0,0-1.67-.17,1.57,1.57,0,0,0-.27,2.75,1.65,1.65,0,0,0,1.64.2,1.6,1.6,0,0,0,1-1.31A1.55,1.55,0,0,0,258.18,110.62Z"/><path class="cls-3" d="M266.57,105.17a1.43,1.43,0,0,0-1.51-.13,1.83,1.83,0,0,0-1,1.5h0a1.56,1.56,0,0,0,.85,1.39,1.93,1.93,0,0,0,1.79-.08,1.28,1.28,0,0,0,.71-1.3A1.54,1.54,0,0,0,266.57,105.17Z"/><polygon class="cls-4" points="274.7 120.61 274.7 120.61 274.7 120.61 274.7 120.61"/><path class="cls-4" d="M275.36,119.67a1,1,0,0,0-.45-.83l-.75-.51a10,10,0,0,1-5.8-2.54h0l.11,0a1.28,1.28,0,0,0,.34.06,1.19,1.19,0,0,0,1.11-.76,4.21,4.21,0,0,1,1.92-2.23,1.19,1.19,0,1,0-.56-2.32,5.8,5.8,0,0,0-3.22,2.91h0l-.42.09c-1-2.31-1.14-4.67-.68-5.67-.06-.08.14-.34.46-.62l-.07-.6a1,1,0,0,0-.59-.84,1.07,1.07,0,0,0-1.05.12,1,1,0,0,0-.39.94l.9,7.1v.12a9.78,9.78,0,0,0-3.22,2.76h-.11a8.44,8.44,0,0,0-5.1,3c-.88-2.47-.76-4.93-.18-5.92-.06-.09.17-.33.52-.58,0-.08,0-.6,0-.6a1,1,0,0,0-.5-.89,1.06,1.06,0,0,0-1.06,0c-.32.19-.33.43-.31.79v7.55a9.61,9.61,0,0,0-4.11,2.65H252a8.4,8.4,0,0,0-5.31,2.4c-.55-2.53-.16-5,.54-5.88-.05-.09.06-.24.44-.45,0-.09,0-.61,0-.61a.94.94,0,0,0-.41-.92c-.31-.22-.54-.33-.88-.17a1,1,0,0,0-.58.84l-.71,7.17,0,.31a9.52,9.52,0,0,0-4.42,2.25l-.12,0a8.57,8.57,0,0,0-5.48,1.84c-.3-2.55.34-4.91,1.11-5.75,0-.1.23-.29.63-.46,0-.09.12-.6.12-.6a1,1,0,0,0-.3-1,1.07,1.07,0,0,0-1-.18,1,1,0,0,0-.65.78l-1.37,7-.08.3a9.32,9.32,0,0,0-4.71,1.84l-.1,0a8.5,8.5,0,0,0-5.6,1.31c-.06-2.55.8-4.82,1.64-5.58,0-.11.26-.27.67-.41l.17-.58a.94.94,0,0,0-.2-1,1.08,1.08,0,0,0-1-.28c-.36.1-.46.33-.55.68l-2.2,6.92-.1.29a9.6,9.6,0,0,0-4.92,1.42l-.1,0a8.51,8.51,0,0,0-5.65.8c.18-2.53,1.23-4.69,2.14-5.38,0-.11.28-.25.7-.36l.23-.56a1,1,0,0,0-.12-1,1.07,1.07,0,0,0-1-.35c-.37.06-.5.28-.62.62l-2.8,6.71-.13.29a9.53,9.53,0,0,0-5.08,1L204,136a8.46,8.46,0,0,0-5.64.35c.4-2.5,1.63-4.57,2.58-5.18,0-.11.3-.23.74-.3l.26-.55a.93.93,0,0,0,0-1,1.06,1.06,0,0,0-1-.43c-.38,0-.53.24-.68.58L197,135.91l-.16.28a9.5,9.5,0,0,0-5.19.63.33.33,0,0,0-.1-.06,8.38,8.38,0,0,0-5.6-.08c.59-2.46,2-4.43,3-5,0-.11.32-.2.76-.24l.31-.53a1,1,0,0,0,.05-1,1.06,1.06,0,0,0-.93-.5c-.38,0-.55.21-.73.53l-3.85,6.22-.19.28a9.28,9.28,0,0,0-5.27.26l-.08-.06a8.18,8.18,0,0,0-5.53-.48c.78-2.41,2.31-4.27,3.34-4.74,0-.1.34-.18.78-.18l.35-.51a.93.93,0,0,0,.12-1,1,1,0,0,0-.88-.57,1,1,0,0,0-.93.48L172,135.6l-.22.28a9.26,9.26,0,0,0-5.31-.13l-.07-.07a8.27,8.27,0,0,0-5.43-.9c1-2.33,2.65-4.07,3.72-4.46,0-.1.35-.15.78-.13l.39-.47a.94.94,0,0,0,.21-1,1.05,1.05,0,0,0-1.8-.23l-4.62,5.61-.26.28a9.13,9.13,0,0,0-5.31-.56l-.07-.07a8.29,8.29,0,0,0-5.28-1.34c1.18-2.24,3-3.84,4.09-4.14,0-.11.36-.13.79-.07l.43-.44a.94.94,0,0,0,.29-1,1,1,0,0,0-.78-.7c-.37-.07-.57.09-.82.37l-5.26,5.17-.29.27a9.44,9.44,0,0,0-5.27-1l-.06-.08a8.32,8.32,0,0,0-5-1.8c1.42-2.1,3.28-3.55,4.4-3.76,0-.1.37-.09.79,0l.47-.4a1,1,0,0,0,.38-.94,1,1,0,0,0-.71-.76c-.37-.11-.57,0-.84.28l-5.71,4.7-.34.26a9.4,9.4,0,0,0-5.16-1.53.56.56,0,0,0,0-.08,8.24,8.24,0,0,0-4.79-2.26c1.63-2,3.73-3.21,4.87-3.29,0-.1.38-.06.79.08a3.73,3.73,0,0,0,.36-.42.93.93,0,0,0,.46-.9c0-.37-.09-.61-.44-.75a1,1,0,0,0-1,.12l-6.12,4.16-.38.26a9.22,9.22,0,0,0-5-2l-.05-.09a8.32,8.32,0,0,0-4.48-2.7c1.81-1.82,4-2.85,5.17-2.84,0-.09.38,0,.78.16l.54-.3a1,1,0,0,0,0-1.73,1,1,0,0,0-1.05,0l-6.44,3.57-.47.24a9.28,9.28,0,0,0-4.77-2.57l0-.07a8,8,0,0,0-4.11-3.13c2-1.61,4.38-2.41,5.52-2.27.07-.08.26-.07.63.15l.58-.25a1,1,0,0,0,.65-.8,1,1,0,0,0-.45-.92c-.31-.21-.53-.13-.87,0l-6.9,2.83-.53.2A9.15,9.15,0,0,0,97.3,108a1.19,1.19,0,1,0-.47,2.34,6.4,6.4,0,0,1,4,2.58l0,0a1.29,1.29,0,0,0,.16.58l-2.23,6.26a.94.94,0,0,0,.27,1h0a1.05,1.05,0,0,0,1,.23,1,1,0,0,0,.71-.66l.3-.83a8.73,8.73,0,0,1,.64-5.51,1.29,1.29,0,0,0,.21.07,6.41,6.41,0,0,1,4.09,2.38l0,0a1.19,1.19,0,0,0,1.06,1.13,6.57,6.57,0,0,1,4.24,2.17s0,0,.06.08a1.31,1.31,0,0,0,.16.47l-1.6,6.47a1,1,0,0,0,.37,1h0a1.49,1.49,0,0,0,1.15.23,1,1,0,0,0,.62-.73l.19-.86a8.7,8.7,0,0,1,0-5.6,1.5,1.5,0,0,0,.29.06,6.52,6.52,0,0,1,4.34,2l0,0a1.2,1.2,0,0,0,1.18,1h0a6.52,6.52,0,0,1,4.42,1.75l.05.05a1.18,1.18,0,0,0,.17.4l-1,6.62a1.24,1.24,0,0,0,.67,1.06,1.06,1.06,0,0,0,1,0,1,1,0,0,0,.55-.78l.1-.88a8.78,8.78,0,0,1-.57-5.54,1,1,0,0,0,.3,0,6.56,6.56,0,0,1,4.53,1.53l.06,0a1.19,1.19,0,0,0,1.26.88,6.56,6.56,0,0,1,4.61,1.31l.06,0a1.16,1.16,0,0,0,.18.35l-.18,6.76a1,1,0,0,0,.59.93h0a1.06,1.06,0,0,0,1-.06,1,1,0,0,0,.47-.83s0-.71,0-.88a8.81,8.81,0,0,1-1.1-5.46,1,1,0,0,0,.34,0,6.68,6.68,0,0,1,4.68,1.09s0,0,.05,0a1.21,1.21,0,0,0,1.34.77,6.65,6.65,0,0,1,4.73.87l.06,0a1.32,1.32,0,0,0,.16.25l.45,6.82a1,1,0,0,0,.67.87h0a1.07,1.07,0,0,0,1-.14,1,1,0,0,0,.39-.86l-.06-.89a8.82,8.82,0,0,1-1.61-5.33,1,1,0,0,0,.39,0,6.65,6.65,0,0,1,4.76.66s.06,0,.09,0a1.19,1.19,0,0,0,1.41.63,6.57,6.57,0,0,1,4.75.47s.06,0,.09.05a1.47,1.47,0,0,0,.1.13l1.06,6.84a1,1,0,0,0,.74.82h0a1.39,1.39,0,0,0,1.13-.2,1,1,0,0,0,.3-.9l-.16-.87a9.06,9.06,0,0,1-2.16-5.19,1.09,1.09,0,0,0,.43-.06,6.55,6.55,0,0,1,4.77.28l.09,0a1.18,1.18,0,0,0,1.45.51,6.6,6.6,0,0,1,4.78.1l.11.05,0,0,1.63,6.8a1,1,0,0,0,.81.76h0a1.39,1.39,0,0,0,1.1-.29,1,1,0,0,0,.22-.91s-.31-.7-.35-.87a9.14,9.14,0,0,1-2.46-5,1.27,1.27,0,0,0,.47-.09,6.5,6.5,0,0,1,4.77-.08l.12.05a1.16,1.16,0,0,0,1,.5,1.17,1.17,0,0,0,.51-.11,6.41,6.41,0,0,1,4.77-.24l.09,0,0,0,2.16,6.7a1,1,0,0,0,.86.69h0a1,1,0,0,0,.92-.35.93.93,0,0,0,.16-.93l-.27-.85a9,9,0,0,1-2.86-4.81,1.17,1.17,0,0,0,.48-.12,6.66,6.66,0,0,1,4.79-.41l.09,0a1.17,1.17,0,0,0,.92.45,1.3,1.3,0,0,0,.57-.14,6.66,6.66,0,0,1,4.77-.58l.08,0,2.68,6.56a1,1,0,0,0,.92.63,1,1,0,0,0,.88-.42.94.94,0,0,0,.1-.94l-.34-.82a9.14,9.14,0,0,1-3.23-4.61,1,1,0,0,0,.5-.15,6.64,6.64,0,0,1,4.75-.74l.09,0a1.22,1.22,0,0,0,.87.38,1.16,1.16,0,0,0,.64-.19,6.64,6.64,0,0,1,4.72-.92h0l3.24,6.35a1,1,0,0,0,1,.56h0a1,1,0,0,0,.85-.49,1,1,0,0,0,0-.94l-.41-.8a9.16,9.16,0,0,1-3.61-4.34,1.13,1.13,0,0,0,.53-.19,6.66,6.66,0,0,1,4.67-1.11l.1,0a1.16,1.16,0,0,0,.8.32,1.22,1.22,0,0,0,.72-.24,6.63,6.63,0,0,1,4.61-1.31l3.79,6.06a1,1,0,0,0,1,.49h0a1.07,1.07,0,0,0,.8-.56.93.93,0,0,0-.07-.94l-.47-.76a9.34,9.34,0,0,1-4-4,1.24,1.24,0,0,0,.55-.24,6.65,6.65,0,0,1,4.56-1.5h.12a1.16,1.16,0,0,0,1.53-.08,6.43,6.43,0,0,1,4.4-1.68l4.32,5.71a1,1,0,0,0,1.05.39h0a1.35,1.35,0,0,0,.92-.69.93.93,0,0,0-.17-.93l-.56-.7a9.54,9.54,0,0,1-4.42-3.6,1.26,1.26,0,0,0,.56-.32,6.56,6.56,0,0,1,4.39-1.89h.12a1.12,1.12,0,0,0,1.49-.22,6.56,6.56,0,0,1,4.17-2.08l4.84,5.3a1.3,1.3,0,0,0,1.26.21h0a1,1,0,0,0,.67-.7,1,1,0,0,0-.26-.91L252,131a9.56,9.56,0,0,1-4.73-3.17,1.2,1.2,0,0,0,.57-.38,6.54,6.54,0,0,1,4.13-2.3h.15a1.14,1.14,0,0,0,.5.14,1.18,1.18,0,0,0,1-.5,6.58,6.58,0,0,1,3.9-2.47l5.47,4.74a1.08,1.08,0,0,0,1.12.17h0a1,1,0,0,0,.59-.76,1,1,0,0,0-.35-.88l-.68-.59a9.57,9.57,0,0,1-5-2.7,1.2,1.2,0,0,0,.56-.44,6.46,6.46,0,0,1,3.89-2.7l.11,0a1.17,1.17,0,0,0,.42.09,1.2,1.2,0,0,0,1-.59,7.17,7.17,0,0,1,2.78-2.54l.08.06,6.09,4.34a1.07,1.07,0,0,0,1.13.08A1.35,1.35,0,0,0,275.36,119.67Z"/><path class="cls-3" d="M273.15,249.28a1.37,1.37,0,0,0-1.47-.35,1.61,1.61,0,0,0-1.21,1.14,1.42,1.42,0,0,0,.29,1.54,1.93,1.93,0,0,0,1.72.57,1.61,1.61,0,0,0,1.23-1.13A2,2,0,0,0,273.15,249.28Z"/><path class="cls-3" d="M261.66,242a1.63,1.63,0,0,0-1.07,1.28,1.69,1.69,0,0,0,.59,1.6,1.63,1.63,0,0,0,1.64.29,1.6,1.6,0,0,0,1.08-1.27,1.62,1.62,0,0,0-.56-1.57A1.69,1.69,0,0,0,261.66,242Z"/><path class="cls-3" d="M251.5,238.48h0a1.67,1.67,0,0,0,.25-2.88,1.74,1.74,0,0,0-1.72-.15,1.65,1.65,0,0,0-.94,1.38,1.43,1.43,0,0,0,.61,1.44A1.94,1.94,0,0,0,251.5,238.48Z"/><path class="cls-3" d="M239.32,230a1.37,1.37,0,0,0-1.5.1,1.64,1.64,0,0,0-.82,1.46,1.45,1.45,0,0,0,.75,1.38,1.9,1.9,0,0,0,1.81,0,1.6,1.6,0,0,0,.82-1.45A1.89,1.89,0,0,0,239.32,230Z"/><path class="cls-3" d="M226.65,225.69a1.37,1.37,0,0,0-1.49.24,1.55,1.55,0,0,0,.19,2.84,1.68,1.68,0,0,0,2.31-1.74A1.64,1.64,0,0,0,226.65,225.69Z"/><path class="cls-3" d="M213.67,222.6A1.66,1.66,0,0,0,212,223a1.67,1.67,0,0,0,2.25,2.48h0a1.6,1.6,0,0,0,.52-1.58A1.62,1.62,0,0,0,213.67,222.6Z"/><path class="cls-3" d="M200.52,220.64a1.67,1.67,0,0,0-1.61.48,1.67,1.67,0,0,0,2.44,2.29,1.68,1.68,0,0,0-.83-2.77Z"/><path class="cls-3" d="M187.3,219.72a1.68,1.68,0,0,0-1.82,2.25,1.64,1.64,0,0,0,1.3,1.05,1.68,1.68,0,0,0,1.82-2.24A1.63,1.63,0,0,0,187.3,219.72Z"/><path class="cls-3" d="M174.08,219.76a1.39,1.39,0,0,0-1.35.7,1.61,1.61,0,1,0,2.58,1.92h0a1.67,1.67,0,0,0-1.23-2.62Z"/><path class="cls-3" d="M160.85,220.77a1.36,1.36,0,0,0-1.28.8,1.6,1.6,0,0,0,0,1.66,1.44,1.44,0,0,0,1.3.88,1.67,1.67,0,0,0,1.46-2.5A1.61,1.61,0,0,0,160.85,220.77Z"/><path class="cls-3" d="M149.34,225.23h0a1.67,1.67,0,0,0-1.63-2.39,1.37,1.37,0,0,0-1.21.9,1.54,1.54,0,0,0,1.46,2.43A1.64,1.64,0,0,0,149.34,225.23Z"/><path class="cls-3" d="M136.32,226.65a1.62,1.62,0,0,0-1.56-.59,1.68,1.68,0,0,0-1.32,1.07,1.62,1.62,0,0,0,.27,1.65,1.67,1.67,0,0,0,1.59.57,1.66,1.66,0,0,0,1-2.7Z"/><path class="cls-3" d="M121.92,230.56a1.37,1.37,0,0,0-1,1.12,1.62,1.62,0,0,0,.43,1.62,1.41,1.41,0,0,0,1.49.47,1.9,1.9,0,0,0,1.32-1.23h0a1.62,1.62,0,0,0-.41-1.62A2,2,0,0,0,121.92,230.56Z"/><path class="cls-3" d="M109.78,236.24a1.35,1.35,0,0,0-.9,1.21,1.62,1.62,0,0,0,.57,1.57,1.42,1.42,0,0,0,1.53.34,1.93,1.93,0,0,0,1.19-1.38h0a1.62,1.62,0,0,0-.56-1.57A1.94,1.94,0,0,0,109.78,236.24Z"/><path class="cls-3" d="M99.92,243.23a1.6,1.6,0,0,0-1.66-.1,1.7,1.7,0,0,0-1,1.42,1.64,1.64,0,0,0,.76,1.49,1.68,1.68,0,0,0,1.69.07,1.63,1.63,0,0,0,.92-1.39h0A1.61,1.61,0,0,0,99.92,243.23Z"/><path class="cls-3" d="M260.66,260.1a1.67,1.67,0,0,0-.77,2.79,1.52,1.52,0,0,0,1.55.44,1.62,1.62,0,0,0,1.2-1.16,1.88,1.88,0,0,0-.49-1.71A1.37,1.37,0,0,0,260.66,260.1Z"/><path class="cls-3" d="M251.41,254.4a1.65,1.65,0,0,0-1.07,1.28,1.62,1.62,0,0,0,.57,1.57,1.55,1.55,0,0,0,1.6.27h0a1.63,1.63,0,0,0,1.08-1.27,1.58,1.58,0,0,0-.53-1.56A1.65,1.65,0,0,0,251.41,254.4Z"/><path class="cls-3" d="M242.67,248.86a1.34,1.34,0,0,0-1.52-.05,1.64,1.64,0,0,0-.92,1.4,1.39,1.39,0,0,0,.54,1.4,1.92,1.92,0,0,0,1.82.21h0a1.64,1.64,0,0,0,.92-1.4A1.86,1.86,0,0,0,242.67,248.86Z"/><path class="cls-3" d="M231.73,244.12a1.4,1.4,0,0,0-1.54.1,1.64,1.64,0,0,0-.78,1.48,1.6,1.6,0,0,0,.89,1.41,1.55,1.55,0,0,0,1.62,0h0a1.65,1.65,0,0,0,.79-1.48A1.86,1.86,0,0,0,231.73,244.12Z"/><path class="cls-3" d="M220.48,240.51a1.67,1.67,0,1,0-1.29,3.07,1.56,1.56,0,0,0,1.62-.2h0a1.62,1.62,0,0,0,.65-1.54A1.58,1.58,0,0,0,220.48,240.51Z"/><path class="cls-3" d="M208.79,237.9a1.67,1.67,0,1,0-1,3.18,1.59,1.59,0,0,0,1.61-.36h0a1.6,1.6,0,0,0,.52-1.58A1.59,1.59,0,0,0,208.79,237.9Z"/><path class="cls-3" d="M196.89,236.29a1.62,1.62,0,0,0-1.6.47,1.66,1.66,0,0,0-.39,1.63,1.63,1.63,0,0,0,1.22,1.14,1.59,1.59,0,0,0,1.59-.48,1.63,1.63,0,0,0,.39-1.62A1.61,1.61,0,0,0,196.89,236.29Z"/><path class="cls-3" d="M184.87,235.59a1.64,1.64,0,0,0-1.56.6,1.62,1.62,0,0,0-.26,1.65,1.64,1.64,0,0,0,1.29,1,1.68,1.68,0,0,0,1.83-2.24A1.63,1.63,0,0,0,184.87,235.59Z"/><path class="cls-3" d="M172.82,235.75a1.67,1.67,0,0,0-.28,3.33,1.6,1.6,0,0,0,1.51-.7h0a1.68,1.68,0,0,0-1.23-2.63Z"/><path class="cls-3" d="M162.28,237.67a1.6,1.6,0,0,0-1.43-.86,1.67,1.67,0,1,0,0,3.34,1.6,1.6,0,0,0,1.44-.81h0A1.62,1.62,0,0,0,162.28,237.67Z"/><path class="cls-3" d="M149,238.83a1.67,1.67,0,0,0,.27,3.33,1.67,1.67,0,0,0-.27-3.33Z"/><path class="cls-3" d="M137.47,241.89a1.62,1.62,0,0,0-1.29,1.06,1.6,1.6,0,0,0,.46,1.59,1.4,1.4,0,0,0,1.38.64,1.58,1.58,0,0,0,1.26-1.06h0a1.64,1.64,0,0,0-.27-1.65A1.58,1.58,0,0,0,137.47,241.89Z"/><path class="cls-3" d="M126.26,246a1.37,1.37,0,0,0-1,1.13,1.61,1.61,0,0,0,.46,1.6,1.36,1.36,0,0,0,1.42.5,1.87,1.87,0,0,0,1.34-1.24h0a1.64,1.64,0,0,0-.45-1.61A1.9,1.9,0,0,0,126.26,246Z"/><path class="cls-3" d="M115.67,251.15a1.64,1.64,0,0,0-1,1.31,1.62,1.62,0,0,0,.61,1.55,1.6,1.6,0,0,0,1.65.25,1.52,1.52,0,0,0,1-1.26h0a1.69,1.69,0,0,0-2.23-1.85Z"/><path class="cls-3" d="M107.18,257.55a1.57,1.57,0,0,0-1.64-.11,1.51,1.51,0,0,0,0,2.77,1.41,1.41,0,0,0,1.5.21,1.54,1.54,0,0,0,.87-1.38h0A1.62,1.62,0,0,0,107.18,257.55Z"/><path class="cls-4" d="M273.07,250h0a1,1,0,0,0-.94-.28,1,1,0,0,0-.73.64l-.34.85a9.45,9.45,0,0,1-.91,5.67l-.17-.05a7,7,0,0,1-3.48-2s0,0,0,0a1.2,1.2,0,0,0-1-1.37,6.37,6.37,0,0,1-4.06-2.47l0-.07a1.2,1.2,0,0,0-.18-.56l1.91-6.59a1,1,0,0,0-.32-1.07h0a1,1,0,0,0-1-.19,1,1,0,0,0-.67.71l-.26.88a9.3,9.3,0,0,1-.36,5.74.86.86,0,0,0-.21-.07,6.39,6.39,0,0,1-4.19-2.24.86.86,0,0,0-.07-.1,1.19,1.19,0,0,0-1.14-1.08,6.34,6.34,0,0,1-4.29-2l0-.06a1.12,1.12,0,0,0-.18-.45l1.28-6.79a1,1,0,0,0-.42-1v0a1.45,1.45,0,0,0-1.16-.17,1,1,0,0,0-.58.78l-.15.92a9.56,9.56,0,0,1,.3,5.8,1.28,1.28,0,0,0-.27-.05h0a6.34,6.34,0,0,1-4.37-1.81l0-.06a1.17,1.17,0,0,0-1.24-1,6.36,6.36,0,0,1-4.47-1.58l-.07-.06a1.17,1.17,0,0,0-.18-.41l.65-6.92a1.26,1.26,0,0,0-.71-1.05h0a1,1,0,0,0-1.48.85l-.07.91a9.45,9.45,0,0,1,.84,5.74.85.85,0,0,0-.32,0,6.39,6.39,0,0,1-4.55-1.35l-.06,0a1.19,1.19,0,0,0-1.32-.85,6.35,6.35,0,0,1-4.61-1.13l-.07,0a1.19,1.19,0,0,0-.19-.35l-.13-7a1,1,0,0,0-.63-.93h0a1,1,0,0,0-1,.11,1,1,0,0,0-.42.87s0,.74,0,.92a9.46,9.46,0,0,1,1.35,5.62,1.15,1.15,0,0,0-.37,0,6.31,6.31,0,0,1-4.66-.91l-.07,0a1.19,1.19,0,0,0-1.39-.74,6.31,6.31,0,0,1-4.69-.69l-.1-.06a.9.9,0,0,0-.14-.2l-.75-7.09a1,1,0,0,0-.7-.88h0a1,1,0,0,0-1,.19c-.27.22-.56.54-.5.89a8.55,8.55,0,0,1,.24.93,9.37,9.37,0,0,1,1.83,5.47,1.16,1.16,0,0,0-.45.05A6.19,6.19,0,0,1,209,230l-.1-.06a1.18,1.18,0,0,0-1.45-.57,6.25,6.25,0,0,1-4.7-.29.53.53,0,0,0-.1-.06.87.87,0,0,1-.09-.11l-1.35-7.08a1,1,0,0,0-.77-.82h0a1.34,1.34,0,0,0-1.1.26,1,1,0,0,0-.26.93l.19.9a9.64,9.64,0,0,1,2.36,5.32,1.24,1.24,0,0,0-.46.08,6.19,6.19,0,0,1-4.7-.1l-.1-.05a1.19,1.19,0,0,0-1.5-.46,6.21,6.21,0,0,1-4.7.08L190,228l-.05,0-1.89-7a1,1,0,0,0-.84-.75h0a1,1,0,0,0-.92.34,1,1,0,0,0-.2.95l.24.89a9.44,9.44,0,0,1,2.67,5.13,1.22,1.22,0,0,0-.53.1,6.18,6.18,0,0,1-4.69.26l-.08,0a1.2,1.2,0,0,0-1.52-.37,6.26,6.26,0,0,1-4.71.42l-.08,0,0,0-2.42-6.9a1,1,0,0,0-.88-.69,1,1,0,0,0-.89.4,1,1,0,0,0-.14,1l.31.86a9.45,9.45,0,0,1,3,4.93,1.06,1.06,0,0,0-.51.14,6.33,6.33,0,0,1-4.7.59l-.08,0a1.2,1.2,0,0,0-1.54-.26,6.31,6.31,0,0,1-4.68.77l-.06,0-3-6.73a1,1,0,0,0-.93-.62h0a1,1,0,0,0-.86.47,1,1,0,0,0-.06,1l.37.83a9.51,9.51,0,0,1,3.41,4.69,1.07,1.07,0,0,0-.54.17,6.3,6.3,0,0,1-4.65.95l-.08,0a1.19,1.19,0,0,0-1.56-.13,6.33,6.33,0,0,1-4.6,1.14h0l-3.5-6.48a1,1,0,0,0-1-.54h0a1,1,0,0,0-.82.55,1,1,0,0,0,0,1l.43.8a9.43,9.43,0,0,1,3.79,4.38,1.13,1.13,0,0,0-.57.23,6.36,6.36,0,0,1-4.55,1.34h-.09a1.17,1.17,0,0,0-1.56,0,6.42,6.42,0,0,1-4.45,1.55L136,226.89a1,1,0,0,0-1-.46h0a1.41,1.41,0,0,0-.95.67,1.05,1.05,0,0,0,.13,1l.52.75a9.25,9.25,0,0,1,4.28,4,1.13,1.13,0,0,0-.62.3,6.26,6.26,0,0,1-4.38,1.73h-.16a1.17,1.17,0,0,0-1.51.17,6.44,6.44,0,0,1-4.2,1.94l-4.6-5.74a1.27,1.27,0,0,0-1.25-.29h0a1,1,0,0,0-.69.69,1,1,0,0,0,.22.95l.58.71A9.45,9.45,0,0,1,127,236.8a1.17,1.17,0,0,0-.6.36,6.33,6.33,0,0,1-4.23,2.16H122a1.2,1.2,0,0,0-1.53.31,6.53,6.53,0,0,1-4,2.36l-5.24-5.21a1,1,0,0,0-1.1-.23h0a1,1,0,0,0-.63.75,1,1,0,0,0,.3.93l.65.64A9.4,9.4,0,0,1,115.4,242a1.22,1.22,0,0,0-.6.43,6.4,6.4,0,0,1-4,2.59h-.09a1.19,1.19,0,0,0-1.49.44,6.63,6.63,0,0,1-3.66,2.76l-5.69-4.66a1,1,0,0,0-1.12-.13h0a1.35,1.35,0,0,0-.71.92,1,1,0,0,0,.41.88s.71.37.84.48a9.33,9.33,0,0,1,5.11,2.57,1.12,1.12,0,0,0-.59.51,6.56,6.56,0,0,1-3.74,3l-.08,0a1.19,1.19,0,0,0-1.43.63A6.32,6.32,0,0,1,95,255.54a1.2,1.2,0,0,0,.23,2.37l.23,0a8.46,8.46,0,0,0,4.85-3.77h.1a8.57,8.57,0,0,0,4.89-3.33c1,2.53,1,5.11.49,6.16.06.09-.15.35-.49.63,0,.08.05.62.05.62a1,1,0,0,0,.54.9,1,1,0,0,0,1-.08,1,1,0,0,0,.43-.95l-.53-7.37v-.39a9.56,9.56,0,0,0,3.93-3h.1a8.38,8.38,0,0,0,5.16-2.74c.68,2.6.41,5.17-.24,6.14,0,.1,0,.26-.41.5,0,.09,0,.63,0,.63a1,1,0,0,0,.45.94,1,1,0,0,0,1.06,0c.33-.19.35-.42.35-.8l.35-7.45,0-.37a9.39,9.39,0,0,0,4.26-2.54l.09,0h.25a8.62,8.62,0,0,0,5.12-2.18c.43,2.64-.09,5.13-.82,6,0,.11-.22.32-.6.51l-.09.62c-.08.37.22.68.52.92a.79.79,0,0,0,.87.22,1,1,0,0,0,.61-.84l1.06-7.37.05-.36a9,9,0,0,0,4.55-2.11l.07,0a4.07,4.07,0,0,0,.79.07,8.7,8.7,0,0,0,4.74-1.66c.18,2.65-.57,5-1.37,5.88,0,.11-.25.29-.65.45l-.14.61a1,1,0,0,0,.25,1,1,1,0,0,0,1,.24,1,1,0,0,0,.69-.79l1.69-7.19.1-.36a9.3,9.3,0,0,0,4.79-1.67l.08,0a5,5,0,0,0,1.26.15,9.42,9.42,0,0,0,4.35-1.22c-.06,2.64-1,4.94-1.89,5.7,0,.11-.27.27-.68.39l-.2.6a1,1,0,0,0,.16,1,1,1,0,0,0,1,.33c.36-.09.47-.32.58-.68l2.49-7.05.13-.35.42,0a9.5,9.5,0,0,0,4.54-1.27l.08,0a5.43,5.43,0,0,0,1.82.28,9.59,9.59,0,0,0,3.81-.87c-.28,2.63-1.42,4.84-2.35,5.51,0,.11-.29.25-.72.34l-.24.58a1,1,0,0,0,.07,1,1,1,0,0,0,1,.41c.38-.05.52-.27.65-.62l3.06-6.82L165,231a7.37,7.37,0,0,0,1.07.08,9.63,9.63,0,0,0,4-.93l.1,0a5.91,5.91,0,0,0,2.4.45,9.73,9.73,0,0,0,3.21-.59c-.48,2.59-1.79,4.7-2.77,5.31,0,.11-.31.22-.75.27l-.28.56a1,1,0,0,0,0,1,1,1,0,0,0,.94.49c.37,0,.54-.23.7-.57l3.58-6.57.19-.33a7.24,7.24,0,0,0,1.72.2,9.61,9.61,0,0,0,3.45-.66l.08.06a6.41,6.41,0,0,0,3,.66,9.25,9.25,0,0,0,2.55-.37c-.68,2.54-2.14,4.54-3.16,5.07,0,.11-.33.2-.76.22L184,236a1,1,0,0,0-.08,1.05,1,1,0,0,0,.89.55,1,1,0,0,0,.91-.52l3.9-6.3.22-.33a7.71,7.71,0,0,0,2.41.37,9.35,9.35,0,0,0,2.83-.44l.06.06a7,7,0,0,0,3.66.9,9.31,9.31,0,0,0,1.82-.2c-.87,2.48-2.47,4.37-3.52,4.82,0,.11-.34.17-.78.16l-.37.51a1,1,0,1,0,1.63,1.2l4.37-6,.24-.31a8.32,8.32,0,0,0,3.16.58,9.29,9.29,0,0,0,2.11-.24l.05.06a7.48,7.48,0,0,0,4.37,1.23c.33,0,.66,0,1-.06-1.07,2.38-2.81,4.12-3.89,4.48,0,.11-.35.15-.79.11l-.4.47a1,1,0,0,0-.25,1,1,1,0,0,0,.8.68,1,1,0,0,0,1-.37l4.83-5.61.29-.31a8.79,8.79,0,0,0,4,.89,8.52,8.52,0,0,0,1.24-.09l.06.08a8.08,8.08,0,0,0,5.14,1.63h0c-1.27,2.28-3.14,3.86-4.25,4.13,0,.1-.36.11-.79,0l-.45.44a1,1,0,0,0,.42,1.74c.36.1.56-.06.82-.33l5.45-5.11.33-.31a9,9,0,0,0,4.78,1.33c.13,0,.25,0,.38,0s0,.06.05.09a8.1,8.1,0,0,0,4.92,2.11c-1.52,2.12-3.56,3.52-4.69,3.66,0,.11-.23.13-.65,0l-.48.4a1,1,0,0,0-.42,1c0,.37.13.61.48.74a1,1,0,0,0,1-.18l5.87-4.58.39-.29a9,9,0,0,0,5,1.82l0,.09a8.18,8.18,0,0,0,4.67,2.58c-1.71,2-3.88,3.19-5,3.23-.05.09-.38,0-.78-.13l-.52.34a1,1,0,0,0-.53.9,1,1,0,0,0,.57.89,1,1,0,0,0,1-.09l6.23-4,.46-.27a9.06,9.06,0,0,0,4.82,2.35.3.3,0,0,0,0,.08,8,8,0,0,0,4.35,3.05c-1.9,1.83-4.17,2.8-5.31,2.72-.06.1-.38,0-.77-.2l-.55.29a1,1,0,0,0-.12,1.79c.32.2.54.09.87-.09l6.71-3.26.52-.24a9,9,0,0,0,4.27,2.77,8.55,8.55,0,0,0,3.75,3.13c-2.1,1.59-4.5,2.31-5.63,2.1-.06.09-.24,0-.61-.19l-.58.24a1,1,0,0,0-.69.78c-.06.38-.07.63.23.86a1,1,0,0,0,1,.14l7-2.59.74-.25-.05-.61.24.07a1.06,1.06,0,0,0,.25,0,1.2,1.2,0,0,0,1.17-.94,1.18,1.18,0,0,0-.12-.81l2.65-6.21A1.28,1.28,0,0,0,273.07,250Z"/><path class="cls-1" d="M136.19,168.4l7-8.24h12.39v20.12l2,2.5-2,2.5v21.94H141.67V179.44L136,186.17l-3.46,3.91L129,186.17l-5.84-6.83v27.88H109.44V185.28l-2.26-2.5,2.26-2.5V160.16h12.21l7.27,8.39,3.57,4.12Z"/><path class="cls-1" d="M171.61,207.22V185.28l-2.27-2.5,2.27-2.5V160.16h24.06l11.74,6.78v14.22l-2.74,1.62,2.74,1.62v16l-11.74,6.77Zm21.08-28.71.9-.58v-7.76l-2.5-1.46h-5.72v9.8Zm-1.6,20.17,2.5-1.46v-9.64l-.9-.53h-7.32v11.63Z"/><path class="cls-1" d="M223.53,207.22V185.28l-2.27-2.5,2.27-2.5V160.16h13.76v20.12l2.2,2.5-2.2,2.5v13.4h22v8.54Z"/><path class="cls-2" d="M42.91,121.55c.39-.85.72-1.62,1-2.32s.62-1.61,1-2.77l.62.18-.16,2a.5.5,0,0,0,.34.52c.6.26,1.36.58,2.28,1l11.2,4.47c1.08.44,2,.79,2.76,1.07a.48.48,0,0,0,.58-.21l1.17-1.46.61.21c-.52,1.21-1,2.36-1.44,3.47s-.85,2.17-1.25,3.24l-.61-.18.15-1.78a.52.52,0,0,0-.34-.54c-.72-.31-1.63-.68-2.71-1.11l-12-4.78,13.46,13.32-.29,1.05-19.07.38,12,4.78L55,143.05a.52.52,0,0,0,.63-.17l1.1-1.35.61.21q-.7,1.62-1.14,2.73c-.29.72-.66,1.67-1.1,2.87l-.62-.18.17-1.9a.5.5,0,0,0-.28-.55c-.74-.31-1.65-.69-2.74-1.12l-11.2-4.48c-.92-.37-1.68-.66-2.3-.89a.51.51,0,0,0-.6.15l-1.22,1.49-.61-.21c.51-1.17.91-2.1,1.18-2.79s.63-1.62.94-2.5L55.51,134Z"/><path class="cls-2" d="M54.09,101.44l2-3q1.88-2.74,3.92-5.84h.14l3.31,3.31-.25.55L59.9,95.28,56,101l6.76,4.62.76-1.12c.58-.85,1.22-1.81,1.92-2.87a.5.5,0,0,0,0-.63l-1.37-1.57.43-.68c1.13.81,2,1.4,2.52,1.78s1.37.92,2.53,1.67l-.41.7-2-.71a.48.48,0,0,0-.59.16c-.74,1-1.41,2-2,2.86l-.75,1.11,4.47,3c.91.62,1.81,1.23,2.71,1.81l4-5.89-2.1-3.63.28-.62,4.09,3.19,0,.14q-2.2,3.17-4,5.85l-2,2.92c-.68,1-1.36,2-2,3.07l-.56-.31.57-1.82a.5.5,0,0,0-.15-.59L68,112.67l-1.34-.93L56.7,105l-1.13-.77-.92-.6a.5.5,0,0,0-.62,0l-1.52,1.19-.55-.33C52.72,103.41,53.43,102.41,54.09,101.44Z"/><path class="cls-2" d="M88.92,91.23c-.86.86-1.8,1.83-2.82,2.89l-.5-.4,1.09-2a.47.47,0,0,0,0-.6c-.52-.54-1.2-1.23-2-2L74.09,78.57l-3.7,3.72L72.26,86l-.34.5-4-3.48v-.16q2.63-2.55,5-4.92l2.8-2.82q2.35-2.36,4.92-5l.15,0,3,4.35L83.4,75l-3.55-2.18-3.7,3.72L86.67,87c.83.83,1.52,1.5,2.07,2a.48.48,0,0,0,.6.05l2-1.1.48.43C90.72,89.44,89.75,90.39,88.92,91.23Z"/><path class="cls-2" d="M103.24,73.05c.33.5.64.94.91,1.33s.52.74.75,1.05a.54.54,0,0,0,.64.26l1.64-.52.4.5c-1,.64-2,1.3-3,2s-2,1.38-3,2.12l-.41-.5,1.2-1.48a.49.49,0,0,0,.07-.61c-.21-.33-.45-.71-.73-1.11s-.57-.86-.91-1.35L94,64.73l-.78-1.12-.64-.9A.5.5,0,0,0,92,62.5l-1.85.56-.38-.52c1.07-.68,2.12-1.37,3.12-2.06.2-.13.45-.31.75-.53l1.09-.81,1.09-.8.7-.49a8.54,8.54,0,0,1,5-1.84A4.34,4.34,0,0,1,105,58.13a5.31,5.31,0,0,1,1.06,3.63,7.61,7.61,0,0,1-1.77,3.77q1.59.64,3,1.29c.93.43,1.8.83,2.6,1.18s1.5.65,2.14.91a8.55,8.55,0,0,0,1.63.5,4,4,0,0,0,.66.08,2.47,2.47,0,0,0,.61,0,3.51,3.51,0,0,0,.6-.15l.66-.23.4.51a15.75,15.75,0,0,1-1.41,1.13l-.9.58a6.26,6.26,0,0,1-.75.36,3,3,0,0,1-.67.18,3.86,3.86,0,0,1-.69,0,5.44,5.44,0,0,1-1.75-.42q-1-.37-2.13-.93l-2.42-1.18c-.85-.43-1.71-.82-2.58-1.19l-.64-.25a1.31,1.31,0,0,0-.47-.07,1.1,1.1,0,0,0-.45.11,4.94,4.94,0,0,0-.56.31l-.88.56ZM99.7,67.87c.52-.32,1-.62,1.42-.91a5.43,5.43,0,0,0,2.49-3,4.39,4.39,0,0,0-.94-3.5,4.22,4.22,0,0,0-2.8-2.08,5.15,5.15,0,0,0-3.55,1.16c-.23.15-.47.33-.72.52l-.8.65Z"/><path class="cls-2" d="M138,48a11.63,11.63,0,0,1,.47,8.77q-1.5,4-6.35,6-4.59,1.91-8.22.28a10.92,10.92,0,0,1-5.51-6.19,11.13,11.13,0,0,1-.41-8.65q1.57-3.88,6.37-5.88c3.08-1.27,5.81-1.39,8.21-.36A10.49,10.49,0,0,1,138,48Zm-16.79,7.17q1.84,4.47,4.65,6.11a6.77,6.77,0,0,0,6.3.18,6.47,6.47,0,0,0,4.2-4.27q.75-2.85-1.17-7.47c-1.2-2.9-2.7-4.88-4.51-6a6.8,6.8,0,0,0-6.35-.1q-3.54,1.45-4.24,4.28T121.23,55.21Z"/><path class="cls-2" d="M163.21,32.4c1.28-.06,2.53-.13,3.75-.23l2.24-.27c1-.12,1.73-.19,2.09-.22a8.46,8.46,0,0,1,5,.82,4.07,4.07,0,0,1,1.94,3.35q.28,3.65-3.54,5.27a6.09,6.09,0,0,1,3.66,1.43,4.78,4.78,0,0,1,1.49,3.27,5.4,5.4,0,0,1-1.8,4.76,9.79,9.79,0,0,1-5.85,2.09c-.5,0-1.05.07-1.65.08s-1.25.06-2,.11c-1.2.1-2.43.21-3.68.34l-.11-.64,1.78-.69a.48.48,0,0,0,.36-.49c0-.39-.05-.84-.08-1.33s-.07-1-.12-1.62l-.94-12c0-.51-.08-1-.11-1.37s-.08-.77-.11-1.09a.5.5,0,0,0-.4-.48L163.29,33Zm5.88,8.85,1.86-.13a4.6,4.6,0,0,0,3.22-1.32,4.06,4.06,0,0,0,.87-3.16,3.73,3.73,0,0,0-1.38-3,5.14,5.14,0,0,0-3.37-.67l-.84.09c-.3,0-.63.09-1,.16Zm.1,1.19.7,9a3.65,3.65,0,0,0,1,.13c.39,0,.75,0,1.08,0a5.26,5.26,0,0,0,3.63-1.5,4.66,4.66,0,0,0,1-3.63,4.31,4.31,0,0,0-1.56-3.33,6.33,6.33,0,0,0-4.26-.8C170.26,42.31,169.71,42.37,169.19,42.44Z"/><path class="cls-2" d="M201,32.07l4.56,18.8a4.73,4.73,0,0,0,.52,1.45,1.74,1.74,0,0,0,.8.64l1.35.57,0,.64c-1.29-.18-2.49-.32-3.59-.45s-2.45-.25-4-.39v-.64l1.45-.26a1.39,1.39,0,0,0,.45-.18.56.56,0,0,0,.17-.38,3.14,3.14,0,0,0-.07-.8q-.11-.49-.3-1.32l-.95-4.12-7.12-.79-2,3.78q-.41.8-.63,1.26a2.29,2.29,0,0,0-.27.75.48.48,0,0,0,.1.39,1.15,1.15,0,0,0,.4.26l1.33.55-.05.67-3.42-.42c-.89-.1-1.88-.2-3-.29v-.64l1.55-.29a1.55,1.55,0,0,0,.88-.46,5.65,5.65,0,0,0,.72-1.09l9.55-17.19Zm-6,11.49,6.09.67-2-8.46Z"/><path class="cls-2" d="M231,40.39a8.92,8.92,0,0,0-2.6-1.33,4.81,4.81,0,0,0-3.27,0,3.23,3.23,0,0,0-1.89,2.19,3.48,3.48,0,0,0-.1,1.74,4.45,4.45,0,0,0,.68,1.55A8.68,8.68,0,0,0,225,45.93c.48.45,1,.89,1.49,1.34s1.11,1,1.63,1.48a9.22,9.22,0,0,1,1.34,1.62,5.36,5.36,0,0,1,.73,1.9A5,5,0,0,1,230,54.5a5.12,5.12,0,0,1-3.53,3.66,10.58,10.58,0,0,1-6.18-.25,19.25,19.25,0,0,1-4.77-2.29l-.05-.14,2.16-4.62.67.09-.23,4.35A8.85,8.85,0,0,0,221,56.83a5.47,5.47,0,0,0,3.59.07,3.37,3.37,0,0,0,2-2.32,3.29,3.29,0,0,0,.1-1.72,4,4,0,0,0-.67-1.5,9.23,9.23,0,0,0-1.2-1.35c-.46-.44-1-.88-1.46-1.32s-1.13-1-1.65-1.51a8.89,8.89,0,0,1-1.35-1.68,5,5,0,0,1-.73-2,5.41,5.41,0,0,1,.23-2.38,4.68,4.68,0,0,1,3.36-3.33A10.06,10.06,0,0,1,229,38a23.67,23.67,0,0,1,4.55,2l.07.13-2.18,4.18-.6-.07Z"/><path class="cls-2" d="M248.76,46.15,252,47.79q3,1.5,6.31,3.11l0,.15-2.84,3.71-.58-.17.73-3.48L249.49,48l-3.69,7.3,1.21.61,3.09,1.53a.54.54,0,0,0,.63-.12l1.37-1.56.73.34c-.66,1.22-1.13,2.13-1.43,2.72s-.74,1.49-1.33,2.73l-.75-.31.45-2.06a.49.49,0,0,0-.23-.56c-1.15-.6-2.18-1.14-3.11-1.61l-1.19-.6-2.45,4.83c-.49,1-1,2-1.44,2.92l6.37,3.22L251,64.84l.66.19-2.63,4.47-.14,0c-2.28-1.18-4.39-2.27-6.32-3.25l-3.16-1.59c-1.07-.54-2.18-1.08-3.31-1.63l.23-.59,1.88.33a.51.51,0,0,0,.57-.23c.19-.35.39-.74.62-1.18l.74-1.45,5.44-10.76.61-1.22.48-1a.51.51,0,0,0-.09-.61L245.23,45l.27-.58C246.62,45.05,247.71,45.62,248.76,46.15Z"/><path class="cls-2" d="M269.74,58c1,.8,2,1.58,3,2.32l1.84,1.3c.85.59,1.42,1,1.71,1.22a8.36,8.36,0,0,1,3.2,4,4.05,4.05,0,0,1-.79,3.78q-2.21,2.91-6.15,1.58a6,6,0,0,1,1.78,3.5,4.76,4.76,0,0,1-1.06,3.44,5.45,5.45,0,0,1-4.51,2.35A9.76,9.76,0,0,1,263,79.12c-.4-.31-.83-.65-1.28-1s-1-.8-1.56-1.25c-1-.72-1.95-1.46-3-2.2l.34-.54,1.79.67a.5.5,0,0,0,.6-.13c.25-.3.52-.65.82-1l1-1.29,7.3-9.6c.31-.4.58-.76.82-1.09s.46-.62.65-.89a.51.51,0,0,0,0-.62l-1.12-1.58Zm-2.22,11.46-5.47,7.18a3.79,3.79,0,0,0,.69.79c.3.26.57.49.83.69a5.24,5.24,0,0,0,3.72,1.29,4.67,4.67,0,0,0,3.16-2,4.3,4.3,0,0,0,1.05-3.52,6.29,6.29,0,0,0-2.65-3.43C268.41,70.09,268,69.77,267.52,69.47Zm.72-1,1.47,1.15A4.63,4.63,0,0,0,273,70.82a4.06,4.06,0,0,0,2.76-1.77,3.73,3.73,0,0,0,.94-3.13,5.18,5.18,0,0,0-2.07-2.74l-.69-.5c-.25-.17-.53-.35-.84-.53Z"/><path class="cls-2" d="M298.11,82.91,289,100a5,5,0,0,0-.58,1.43,1.78,1.78,0,0,0,.17,1l.63,1.32-.46.45c-.85-1-1.64-1.89-2.38-2.72s-1.65-1.82-2.7-3l.43-.47,1.26.77a1.06,1.06,0,0,0,.45.17.56.56,0,0,0,.38-.17,2.64,2.64,0,0,0,.48-.64c.17-.29.39-.69.66-1.18l2-3.71-4.79-5.33-4,1.48-1.32.52a2.6,2.6,0,0,0-.69.38.5.5,0,0,0-.19.36,1.16,1.16,0,0,0,.12.46l.63,1.3-.48.47c-.92-1.07-1.68-1.94-2.27-2.6s-1.27-1.4-2-2.2l.43-.48,1.34.81a1.6,1.6,0,0,0,1,.26,6.75,6.75,0,0,0,1.26-.34l18.58-6.44Zm-12.17,4.53L290,92l4.16-7.63Z"/><path class="cls-2" d="M310,106.23l-10.35,6.24c-1,.57-1.87,1.14-2.78,1.71l3.74,6.2,4.36-.4.43.52L300.63,123l-.14,0q-2-3.31-3.64-6.12l-1.93-3.2c-.61-1-1.26-2.07-1.94-3.13l.52-.38,1.42,1.28a.48.48,0,0,0,.6.1l1.15-.66,1.4-.84,10.33-6.22,1.16-.71.93-.59a.5.5,0,0,0,.25-.57l-.45-1.88.53-.35c.63,1.11,1.24,2.18,1.85,3.19s1.27,2.06,2,3.12l-.52.39-1.42-1.3a.49.49,0,0,0-.6-.09l-1.31.76Z"/><path class="cls-2" d="M321.7,129.55l-11.28,4.33c-1,.4-2,.79-3,1.2l2.6,6.76,4.36.36.34.59-5.09,1.6-.13,0q-1.34-3.61-2.51-6.67l-1.34-3.48c-.43-1.12-.89-2.27-1.37-3.43l.58-.28L306,132a.5.5,0,0,0,.57.21l1.25-.46,1.53-.58,11.25-4.32,1.28-.5,1-.42a.5.5,0,0,0,.34-.51l-.12-1.93.59-.26c.42,1.21.84,2.37,1.26,3.47s.89,2.25,1.38,3.42l-.57.28-1.18-1.52a.48.48,0,0,0-.57-.2l-1.42.53Z"/><path class="cls-2" d="M108.3,295.18,100.67,307c-.7,1.07-1.37,2.13-2,3.19l7.06,4.57,4.34-2.64.72.32-3.68,5-.15.05c-2.49-1.65-4.79-3.17-6.92-4.54l-3.63-2.36c-1.17-.75-2.38-1.52-3.63-2.28l.35-.66,2.13.62a.57.57,0,0,0,.68-.2l.86-1.28,1-1.59,7.61-11.75.86-1.34L107,291a.6.6,0,0,0,0-.72l-1.43-1.73.37-.64c1.22.84,2.41,1.64,3.56,2.38s2.37,1.51,3.63,2.27l-.34.66-2.15-.63a.56.56,0,0,0-.67.21l-1,1.46C108.49,294.89,108.28,295.2,108.3,295.18Z"/><path class="cls-2" d="M132.49,303l3.92,1.5q3.6,1.38,7.65,2.86l0,.16-2.84,4.63-.69-.14.43-4.11L133.55,305l-3.4,8.87,1.47.56c1.11.43,2.36.89,3.75,1.4a.59.59,0,0,0,.71-.21l1.4-2,.88.3c-.61,1.5-1.05,2.6-1.33,3.32s-.67,1.8-1.21,3.31l-.9-.27.27-2.43a.58.58,0,0,0-.33-.63c-1.39-.56-2.65-1-3.78-1.48l-1.45-.56-2.25,5.87q-.69,1.78-1.32,3.54l7.74,3,3.53-3.34.78.15-2.51,5.47-.15.07q-4.17-1.65-7.69-3l-3.84-1.47c-1.3-.5-2.64-1-4-1.49l.21-.72,2.21.17a.57.57,0,0,0,.62-.34c.18-.42.37-.9.58-1.43l.69-1.76,5-13.08c.21-.54.4-1,.56-1.48l.44-1.21a.6.6,0,0,0-.18-.69l-1.76-1.4.23-.7C129.88,301.93,131.21,302.46,132.49,303Z"/><path class="cls-2" d="M165.53,311.44l4.62,22a6,6,0,0,0,.55,1.71,2.11,2.11,0,0,0,.91.76l1.54.71-.07.74c-1.49-.25-2.87-.46-4.15-.64s-2.83-.39-4.6-.6l0-.75,1.7-.25a1.23,1.23,0,0,0,.52-.19.63.63,0,0,0,.21-.43,3.13,3.13,0,0,0,0-.93c-.07-.38-.17-.9-.3-1.55l-.95-4.81L157.25,326l-2.45,4.31c-.32.61-.59,1.09-.78,1.44a2.9,2.9,0,0,0-.33.86.6.6,0,0,0,.1.46,1.32,1.32,0,0,0,.46.32l1.52.69-.07.77c-1.62-.26-2.94-.47-4-.61s-2.18-.29-3.45-.44l0-.75,1.8-.28a1.79,1.79,0,0,0,1-.5,6.53,6.53,0,0,0,.87-1.23l11.7-19.62Zm-7.43,13.13,7,1-2-9.9Z"/><path class="cls-2" d="M202.83,317.71l-.68.16-1.59-4.4a15.71,15.71,0,0,0-4-.2,8.31,8.31,0,0,0-6.45,3.51q-2.15,3.14-1.69,8.26a12.3,12.3,0,0,0,3.35,8,8.89,8.89,0,0,0,7.33,2.43,11.48,11.48,0,0,0,2.9-.64l-.41-4.59c0-.58-.1-1.1-.15-1.57s-.09-.9-.14-1.28a.57.57,0,0,0-.46-.54l-2.19-.48-.1-.73q2.22-.15,4.26-.33c1.38-.12,2.71-.26,4-.41l.15.73-1.82.72a.59.59,0,0,0-.4.57c0,.46.06.93.1,1.41s.08,1,.13,1.54l.49,5.5-.1.13a28.26,28.26,0,0,1-6.38,1.42q-6,.54-9.9-2.34c-2.57-1.93-4-4.79-4.36-8.61q-.54-6.09,2.86-9.87t9.83-4.35a26.05,26.05,0,0,1,5.87.19l.12.13Z"/><path class="cls-2" d="M214.2,309.63c1.41-.45,2.76-.9,4.06-1.36s2.64-.95,4-1.49l.31.68-1.8,1.31a.56.56,0,0,0-.25.66c.13.38.26.8.42,1.25s.32.95.51,1.48l3.14,8.91q1.65,4.65,3.76,5.93c1.41.85,3.22.89,5.41.12s3.62-2,4.18-3.57.33-3.83-.69-6.73l-3.21-9.1-.53-1.47q-.26-.67-.48-1.23a.56.56,0,0,0-.6-.36l-2.1.12L230,304c1.39-.44,2.58-.84,3.57-1.19s2.09-.76,3.43-1.28l.31.68-1.83,1.36a.59.59,0,0,0-.19.69l.4,1.21c.15.45.33.95.52,1.5l2.95,8.36c1.25,3.56,1.46,6.45.61,8.66s-2.83,3.87-5.94,5-5.58,1.11-7.57.08-3.57-3.15-4.71-6.38l-3.3-9.35c-.19-.55-.37-1.05-.54-1.49s-.31-.85-.45-1.2a.58.58,0,0,0-.58-.42l-2.25.08Z"/><path class="cls-2" d="M248.9,294.8l3.53-2.28c2.17-1.4,4.44-2.89,6.83-4.49l.16.06,2.05,5-.52.48-3.06-2.77-6.7,4.32,5.15,8,1.32-.85c1-.65,2.12-1.38,3.35-2.2a.62.62,0,0,0,.25-.7l-.76-2.28.76-.54c.85,1.37,1.48,2.38,1.9,3s1.06,1.61,1.95,2.93l-.74.57-1.81-1.65a.56.56,0,0,0-.7-.1c-1.27.79-2.41,1.51-3.43,2.17l-1.31.84,3.41,5.28c.7,1.07,1.39,2.13,2.08,3.16l7-4.5-.61-4.82.58-.54,2.93,5.26,0,.16c-2.52,1.59-4.85,3.07-7,4.43L262,315q-1.75,1.14-3.57,2.37l-.46-.59,1.44-1.69a.57.57,0,0,0,.1-.7l-.81-1.31-1-1.6-7.6-11.76c-.31-.49-.6-.94-.86-1.33s-.5-.75-.72-1.06a.57.57,0,0,0-.66-.27l-2.17.6-.43-.61C246.54,296.29,247.75,295.54,248.9,294.8Z"/></g></g></svg>