<svg width="3383" height="1653" viewBox="0 0 3383 1653" fill="none" xmlns="http://www.w3.org/2000/svg">
<g filter="url(#filter0_f_106_5)">
<path fill-rule="evenodd" clip-rule="evenodd" d="M4.17551 1451.66L140.709 1251.56C277.243 1051.46 550.311 651.261 831.143 645.737C1111.97 640.212 1400.57 1029.36 1680.76 990.948C1960.94 952.534 2232.71 486.554 2509.02 250.802C2785.32 15.0496 3066.15 9.52477 3206.57 6.76237L3346.98 3.99998L3378.04 1582.7L3237.63 1585.46C3097.21 1588.23 2816.38 1593.75 2535.55 1599.28C2254.71 1604.8 1973.88 1610.33 1693.05 1615.85C1412.22 1621.38 1131.39 1626.9 850.554 1632.43C569.722 1637.95 288.89 1643.48 148.474 1646.24L8.05773 1649L4.17551 1451.66Z" fill="white" fill-opacity="0.1"/>
<path fill-rule="evenodd" clip-rule="evenodd" d="M4.17551 1451.66L140.709 1251.56C277.243 1051.46 550.311 651.261 831.143 645.737C1111.97 640.212 1400.57 1029.36 1680.76 990.948C1960.94 952.534 2232.71 486.554 2509.02 250.802C2785.32 15.0496 3066.15 9.52477 3206.57 6.76237L3346.98 3.99998L3378.04 1582.7L3237.63 1585.46C3097.21 1588.23 2816.38 1593.75 2535.55 1599.28C2254.71 1604.8 1973.88 1610.33 1693.05 1615.85C1412.22 1621.38 1131.39 1626.9 850.554 1632.43C569.722 1637.95 288.89 1643.48 148.474 1646.24L8.05773 1649L4.17551 1451.66Z" stroke="black"/>
</g>
<defs>
<filter id="filter0_f_106_5" x="0.175537" y="0" width="3381.87" height="1653" filterUnits="userSpaceOnUse" color-interpolation-filters="sRGB">
<feFlood flood-opacity="0" result="BackgroundImageFix"/>
<feBlend mode="normal" in="SourceGraphic" in2="BackgroundImageFix" result="shape"/>
<feGaussianBlur stdDeviation="2" result="effect1_foregroundBlur_106_5"/>
</filter>
</defs>
</svg>
